<svg width="24" height="20" viewBox="0 0 24 20" fill="none" xmlns="http://www.w3.org/2000/svg">
  <path d="M23 2.01c-.83.37-1.71.62-2.64.73a4.6 4.6 0 002.01-2.54 9.2 9.2 0 01-2.91 1.11A4.58 4.58 0 0016.08 0c-2.53 0-4.58 2.05-4.58 4.58 0 .36.04.71.11 1.04A13.01 13.01 0 011.64.78a4.58 4.58 0 001.42 6.11 4.54 4.54 0 01-2.07-.57v.06c0 2.22 1.58 4.07 3.67 4.49-.38.1-.79.16-1.2.16-.29 0-.58-.03-.86-.08a4.58 4.58 0 004.28 3.18A9.19 9.19 0 010 15.54 13 13 0 007.03 17.5c8.44 0 13.05-6.99 13.05-13.05 0-.2 0-.4-.01-.59A9.33 9.33 0 0023 2.01z" fill="currentColor"/>
</svg>
